<svg version="1.1" id="Dark" xmlns="http://www.w3.org/2000/svg" xmlns:xlink="http://www.w3.org/1999/xlink" x="0px" y="0px"
	 viewBox="0 0 904 53" enable-background="new 0 0 904 53" width="904px" height="53px" xml:space="preserve">
<g>
	<polygon fill="#FDC82F" points="27.5,40.9 27.5,52.4 0,52.4 0,40.9 5.9,40.9 5.9,12.1 0,12.1 0,0.5 27.5,0.5 27.5,12.1 21.6,12.1 
		21.6,40.9 	"/>
	<path fill="#FDC82F" d="M79.5,12.1h-5.3V0.5h25v11.6h-5.5v40.4H80.6c-3.5,0-4.7-0.9-6.4-3.8L59.9,22.8h-0.4v18h5.7v11.6H39.6V40.9
		h5.7V12.1h-5.7V0.5h20.5c3.5,0,4.8,0.9,6.4,3.8l12.6,22.8h0.4V12.1z"/>
	<path fill="#FDC82F" d="M159.3,41.2h8.7c1.4,0,2-0.1,2.5-0.7c0.5-0.5,0.9-1,0.9-4.5c0-3.3-0.3-4-0.9-4.6c-0.5-0.5-1.1-0.7-2.5-0.7
		h-8.7V41.2z M167.8,21c1.3,0,1.8-0.1,2.3-0.5c0.5-0.6,0.9-1.6,0.9-4.2c0-2.5-0.3-3.5-0.8-4c-0.4-0.4-0.9-0.6-2.4-0.6h-8.5V21H167.8
		z M187.9,38.6c0,5.1-1.5,8.5-3.9,10.9c-2.2,2.2-5.1,3-9.4,3h-36.6V40.9h5.7V12.1h-5.7V0.5h36.7c4.8,0,7.2,0.8,9.3,2.8
		c2.5,2.4,3.5,6,3.5,10c0,7.9-2.9,11.1-8.4,12.5V26C184.8,27.4,187.9,30.1,187.9,38.6"/>
	<polygon fill="#FDC82F" points="200.6,12.1 200.6,0.5 248.4,0.5 248.4,19.4 234.9,19.4 234.9,11.9 222,11.9 222,20.7 233.1,20.7 
		233.1,31.4 222,31.4 222,41 235.2,41 235.2,32.6 248.6,32.6 248.6,52.4 200.6,52.4 200.6,40.9 206.3,40.9 206.3,12.1 	"/>
	<polygon fill="#FDC82F" points="261.3,12.1 261.3,0.5 309.1,0.5 309.1,19.4 295.7,19.4 295.7,11.9 282.7,11.9 282.7,20.7 
		293.8,20.7 293.8,31.4 282.7,31.4 282.7,41 295.9,41 295.9,32.6 309.3,32.6 309.3,52.4 261.3,52.4 261.3,40.9 267,40.9 267,12.1 	
		"/>
	<path fill="#FDC82F" d="M350.5,22.2c2.2,0,3.1-0.1,3.5-0.6c0.7-0.7,0.8-1.9,0.8-4.5c0-2.7-0.2-3.8-0.8-4.5
		c-0.5-0.4-1.3-0.6-3.5-0.6h-7.1v10.2H350.5z M370.8,40.9h5.1v11.6h-14.3c-3.2,0-4.4-0.5-5.3-1.4c-1.1-1.1-1.8-3-2.1-11.7
		c-0.2-3.9-0.4-4.8-1.2-5.6c-0.7-0.7-1.6-1-4.2-1h-5.5v8h5.8v11.6h-27.2V40.9h5.7V12.1h-5.7V0.5h36.6c4.6,0,7.6,0.7,9.7,2.7
		c2.4,2.3,3.1,5.2,3.1,11.7c0,9.2-2.5,11.4-8.7,12.6v0.1c5.4,1.2,7.9,2.9,8,10.4C370.7,38.9,370.8,40,370.8,40.9"/>
	<path fill="#FDC82F" d="M465.3,5.2l6.1,32.4h0.7l4.1-25.5h-5.4V0.5h25.5v11.6h-4.8l-8,35.7c-0.8,3.7-2.6,4.9-6.3,4.9h-11.5
		c-3.7,0-5.5-1.2-6.2-4.9L454.8,23h-0.7l-4.6,24.7c-0.7,3.7-2.5,4.9-6.2,4.9h-11.6c-3.7,0-5.4-1.2-6.3-4.9l-8.1-35.7h-4.8V0.5h26.6
		v11.6h-5.4l4.1,25.5h0.8l6.1-32.4c0.7-3.7,2.5-4.9,6.2-4.9h8.1C462.8,0.3,464.6,1.5,465.3,5.2"/>
	<polygon fill="#FDC82F" points="507.3,12.1 507.3,0.5 555,0.5 555,19.4 541.6,19.4 541.6,11.9 528.6,11.9 528.6,20.7 539.8,20.7 
		539.8,31.4 528.6,31.4 528.6,41 541.8,41 541.8,32.6 555.3,32.6 555.3,52.4 507.3,52.4 507.3,40.9 512.9,40.9 512.9,12.1 	"/>
	<polygon fill="#FDC82F" points="635.5,40.9 635.5,52.4 607.3,52.4 607.3,40.9 613.5,40.9 613.5,11.8 607.2,11.8 607.2,21.3 
		595,21.3 595,0.5 647.8,0.5 647.8,21.3 635.6,21.3 635.6,11.8 629.3,11.8 629.3,40.9 	"/>
	<path fill="#FDC82F" d="M688,22.2c2.2,0,3.1-0.1,3.5-0.6c0.7-0.7,0.8-1.9,0.8-4.5c0-2.7-0.2-3.8-0.8-4.5c-0.5-0.4-1.3-0.6-3.5-0.6
		h-7v10.2H688z M708.3,40.9h5.1v11.6h-14.3c-3.2,0-4.4-0.5-5.3-1.4c-1.1-1.1-1.8-3-2.1-11.7c-0.2-3.9-0.4-4.8-1.2-5.6
		c-0.7-0.7-1.6-1-4.2-1h-5.5v8h5.8v11.6h-27.2V40.9h5.7V12.1h-5.7V0.5h36.6c4.6,0,7.6,0.7,9.7,2.7c2.4,2.3,3.1,5.2,3.1,11.7
		c0,9.2-2.5,11.4-8.7,12.6v0.1c5.4,1.2,7.9,2.9,8,10.4C708.2,38.9,708.2,40,708.3,40.9"/>
	<path fill="#FDC82F" d="M753,12.1V0.5h26.5v11.6H774v19.5c0,11.5-1.3,15-4.2,17.8c-2.5,2.4-5.5,3-12.4,3h-12.8
		c-6.9,0-10-0.7-12.4-3c-2.9-2.8-4.2-6.3-4.2-17.8V12.1h-5.5V0.5h26.8v11.6h-5.4v20.9c0,4.8,0.2,6.2,0.9,6.9c0.6,0.6,2,0.7,4.6,0.7
		h3.6c2.6,0,4-0.1,4.6-0.7c0.7-0.7,0.9-2.1,0.9-6.9V12.1H753z"/>
	<path fill="#FDC82F" d="M834.5,49.9c-1.6,1.6-4.1,2.5-8.4,2.5h-21.5c-4.8,0-7.6-0.6-9.5-2.4c-2.2-2.2-3.1-5.9-3.1-15.1h14.7
		c0.2,3.9,0.4,5,0.8,5.3c0.5,0.4,1.4,0.6,3.6,0.6h7.4c2.2,0,3.4-0.1,3.8-0.5c0.5-0.4,0.6-1.4,0.6-3.3c0-1.5-0.2-2.4-0.6-2.8
		c-0.4-0.4-1.7-0.7-3.8-0.9L803,31.6c-3.4-0.4-5.6-1.2-7.3-2.8c-2.1-2-3.1-5.4-3.1-12.6c0-6.6,1.3-10.8,3.8-13.1
		c1.6-1.6,4.2-2.5,8.3-2.5h20.1c5,0,7.8,0.7,9.5,2.4c2.3,2.2,3.1,5.5,3.2,14.5h-14.7c-0.2-3.3-0.3-4.2-0.8-4.7
		c-0.5-0.4-1.2-0.6-3.2-0.6h-7.2c-1.8,0-2.7,0.1-3,0.4c-0.4,0.4-0.5,1.3-0.5,3c0,1.6,0.2,2.4,0.6,2.8c0.4,0.4,1.2,0.5,3.8,0.8
		l15.4,1.8c3.7,0.4,5.6,1.3,7.2,2.8c2.1,2,3.1,5.6,3.1,12.5C838.3,43.3,837,47.5,834.5,49.9"/>
	<polygon fill="#FDC82F" points="891.7,40.9 891.7,52.4 863.5,52.4 863.5,40.9 869.7,40.9 869.7,11.8 863.4,11.8 863.4,21.3 
		851.2,21.3 851.2,0.5 904,0.5 904,21.3 891.8,21.3 891.8,11.8 885.4,11.8 885.4,40.9 	"/>
</g>
</svg>
