<?xml version="1.0" encoding="utf-8"?>
<!DOCTYPE svg PUBLIC "-//W3C//DTD SVG 1.1//EN" "http://www.w3.org/Graphics/SVG/1.1/DTD/svg11.dtd">
<svg version="1.1" id="Layer_1" xmlns="http://www.w3.org/2000/svg" xmlns:xlink="http://www.w3.org/1999/xlink" x="0px" y="0px"
	 viewBox="0 0 189 46" enable-background="new 0 0 189 46" width="189px" height="46px" xml:space="preserve">
<g>
	<path fill="#FFFFFF" d="M13.3,27.6c1.2-1.8,2.3-3.5,3.4-5.1c1-1.6,1.6-2.3,2.4-3.5c0.8-1.2,1.2-2.1,1.3-2.6
		c0.2-0.6,0.1-1.2-0.1-1.9c-0.3-0.7-0.6-1.3-1.2-1.9c-0.5-0.6-1.1-1.2-1.7-1.7c-0.7-0.5-1.3-0.9-1.9-1.1c-0.6-0.3-1-0.2-1.6-0.1
		c-0.5,0.1-0.9,0.4-1.2,1c-0.2,0.5-0.5,1.2-1.1,2.3c-0.5,1.1-0.8,1.7-1.5,3.3c-0.7,1.6-1.4,3.3-2.2,5.2s-1.5,3.9-2.2,6
		S0.3,41.4,0,43.3c-0.1,0.8,0,1.3,0.3,1.8s0.5,0.6,0.9,0.8c0.4,0.1,0.8,0,1.2-0.2c0.4-0.2,0.8-0.8,1.1-1.4c0.4-0.8,5.3-9.7,6.4-11.4
		C11,31.2,12.1,29.4,13.3,27.6z"/>
	<path fill="#FFFFFF" d="M34.3,15.8c0.7-1.6,1-3.2,1-4.8S34.9,7.9,34,6.7c-0.9-1.3-2.2-2.3-4-3.1c-1.8-0.8-4.1-1.2-7.1-1.2
		c-3,0-5.6,0.4-7.9,1.1S10.7,5.1,9,6.2C7.3,7.4,5.8,8.7,4.7,10c-1.2,1.4-2.1,2.7-2.8,4s-1.1,2.5-1.3,3.5c-0.2,1-0.1,1.8,0.2,2.3
		c0.2,0.3,0.5,0.5,1,0.6c0.4,0.1,1,0.1,1.5,0c0.5-0.1,1.1-0.3,1.7-0.5c0.5-0.2,1-0.5,1.5-0.9c0.4-0.3,0.8-0.8,0.9-1.2
		c0.2-0.4,0.2-0.9,0-1.3C7,15.8,7,14.6,7.5,13.3c0.4-1.4,1.3-2.7,2.5-3.9s2.8-2.3,4.7-3.2c2-0.9,4.3-1.3,6.9-1.3
		c1.8,0,3.1,0.4,4,1.3c0.9,0.9,1.4,2,1.7,3.3c0.2,1.3,0.2,2.8-0.1,4.3c-0.3,1.5-0.8,3-1.5,4.3c-0.7,1.3-1.5,2.4-2.4,3.3
		c-0.9,0.9-1.9,1.3-2.9,1.3c-0.8,0-1.3,0.1-1.7,0.4c-0.4,0.3-0.6,0.6-0.7,1c0,0.3,0.1,0.7,0.4,1c0.3,0.3,0.8,0.4,1.4,0.4h0
		c1.3,0,2.2,0.4,2.8,1.2c0.5,0.8,0.7,1.9,0.6,3.1c-0.1,1.3-0.5,2.6-1.2,4.1c-0.7,1.5-1.7,2.8-2.9,4.1c-1.2,1.3-2.6,2.3-4.3,3.1
		c-1.6,0.8-3.4,1.2-5.4,1.2c-0.5,0-1,0.2-1.4,0.5c-0.4,0.3-0.5,0.6-0.6,1c0,0.4,0.1,0.7,0.4,1c0.3,0.3,1,0.5,1.8,0.5
		c2.7,0,5.3-0.4,7.7-1.3c2.4-0.8,4.4-2,6.2-3.3s3.3-2.9,4.4-4.5c1.2-1.6,1.9-3.3,2.3-4.9c0.4-1.6,0.3-3.1-0.3-4.4
		c-0.5-1.3-1.6-2.3-3.2-3.1c1.7-0.9,3.3-2,4.6-3.4C32.6,18.8,33.6,17.4,34.3,15.8z"/>
	<path fill="#FFFFFF" d="M188.1,25.1c-0.2-0.6-0.4-1.2-0.6-1.8c-0.2-0.6-0.4-1.2-0.6-1.6s-0.3-1-0.3-1.4c0-0.4,0-0.8,0.1-1
		c0.3-0.5,0.2-1.1-0.1-1.9c-0.3-0.8-0.8-1.5-1.4-2.1c-0.6-0.6-1.2-1-1.9-1.2c-0.7-0.2-1.3,0.1-1.7,0.9c-0.7,1.2-1.4,2.4-2.2,3.7
		c-0.8,1.3-1.6,2.6-2.5,3.9c-0.9,1.3-1.7,2.7-2.5,4.1c-0.8,1.4-1.6,2.8-2.3,4.1c-0.1,0.3-0.8,1.8-1.1,2.4c-0.5,0.9-1,1.8-1.7,2.6
		c-0.6,0.8-1.3,1.5-2,2.1c-0.7,0.6-1.4,0.9-2.2,1c-0.5,0-0.8-0.1-0.8-0.5c0-0.4,0.2-1,0.5-1.6c0.3-0.7,0.7-1.5,1.2-2.3
		c0.5-0.8,1-1.7,1.5-2.6c0.5-0.9,1-1.7,1.4-2.6c0.4-0.8,0.8-1.5,0.9-2.1c0.1-0.4,0.1-0.9,0-1.3c-0.1-0.4-0.3-0.8-0.5-1.2
		c-0.3-0.4-0.5-0.8-0.9-1c-0.4-0.3-0.8-0.5-1.2-0.8c-0.9-0.7-1.7-1.2-2.4-1.6c-0.7-0.4-1.2-0.8-1.5-1.2c-0.4-0.4-0.5-0.8-0.6-1.2
		c0-0.4,0.1-1,0.5-1.7c0.3-0.7,0.4-1.2,0.2-1.6c-0.2-0.4-0.5-0.7-0.9-0.8c-0.1,0-0.2,0-0.3,0c0,0-0.1,0-0.2,0
		c-1.3,0-2.3,0.3-2.8,1.2c-0.5,0.8-0.4,2.1,0.3,3.5c0,0.2-0.2,0.4-0.3,0.8c-0.2,0.5-0.5,1.2-0.8,1.9s-0.7,1.6-1.1,2.5
		c-0.4,0.9-0.8,1.8-1.2,2.6c-0.4,0.8-0.7,1.6-1,2.3c-0.1,0.3-0.7,1.3-0.8,1.6c-0.4,0.8-0.8,1.6-1.5,2.6c-0.7,1-1.5,1.9-2.5,2.7
		c-1,0.9-2.2,1.6-3.6,2.2c-1.4,0.6-2.9,0.9-4.7,0.9c-0.8,0-1.4-0.2-1.8-0.5c-0.4-0.3-0.7-0.8-0.9-1.4c-0.1-0.6-0.2-1.3,0-2.1
		c0.1-0.8,0.4-1.6,0.6-2.5c0.9,0.2,1.8,0.2,3,0.2c1.2,0,2.5-0.3,4.1-0.9c1.2-0.4,2.3-1.1,3.4-1.9c1-0.9,1.9-1.8,2.7-2.9
		c0.8-1.1,1.3-2.2,1.5-3.4c0.3-1.2,0.3-2.2,0-3.1c-0.3-0.9-0.9-1.7-1.8-2.3c-0.9-0.6-2.3-0.9-4.1-0.9c-2.7,0-5.1,0.6-7.2,1.8
		c-2.1,1.2-3.8,2.7-5.1,4.6c-2.1,3.1-3,6.7-3.1,7c-0.3,0.7-0.7,1.6-1.2,2.5c-0.5,1-1.1,1.9-1.7,2.7c-0.6,0.8-1.3,1.6-2,2.1
		c-0.7,0.5-1.4,0.8-2.1,0.6c-0.6-0.1-0.9-0.6-0.9-1.3c0-0.8,0.2-1.8,0.7-3c0.4-1.2,1-2.6,1.8-4.2c0.8-1.6,1.7-3.2,2.7-4.9
		c1-1.7,2-3.4,3.1-5.1c0.8-1.3,1.7-2.9,2.5-4.2l1.1-0.2c1.2-0.2,2.3-0.4,3.4-0.6c1.1-0.2,8.8-1.7,9.7-1.9c0.9-0.2,1.7-0.3,2.3-0.5
		c0.6-0.1,1.1-0.3,1.3-0.4c0.4-0.2,0.8-0.5,1.2-1c0.4-0.5,0.7-1,0.9-1.6c0.3-0.6,0.4-1.2,0.5-1.8c0.1-0.6,0.1-1.2,0-1.6
		c0-0.4-0.2-0.8-0.5-1c-0.3-0.2-0.7-0.2-1.2,0.1c-1.5,0.8-13.6,3.9-15.4,4.5c0.1-0.1,0.1-0.3,0.2-0.4c0.4-0.8,0.8-1.4,1.1-1.9
		c0.3-0.5,0.5-0.9,0.5-1.2c0.2-0.6,0.1-1.2,0-1.9c-0.2-0.7-0.5-1.3-0.9-1.9c-0.4-0.6-0.9-1.2-1.4-1.7s-1.1-0.9-1.7-1.2
		C137.1,0,136.6,0,136.1,0c-0.5,0.1-0.9,0.4-1.2,1c-0.2,0.3-0.4,0.7-0.8,1.4c-0.4,0.7-0.8,1.5-1.3,2.5s-1.1,2.1-1.7,3.3
		c-0.6,1.2-1.3,2.5-1.9,3.9c-0.3,0.7-0.5,1.2-0.8,1.6c-1,0.4-2,0.7-3,1.1c-1.2,0.5-3.3,1.7-4.5,2.4c-0.5,0.3-1.1,1-1.3,1.3
		c-0.2,0.4-0.3,0.6-0.2,0.9c0.1,0.3,0.3,0.4,0.7,0.5s0.9,0,1.5-0.2c0.7-0.3,2.6-0.8,3.4-1c0.4-0.1,0.8-0.2,1.2-0.3
		c-0.6,1.4-1.2,2.8-1.7,4c-0.6,1.6-1.2,3.1-1.7,4.6c-2.2,6.6-4.6,9.1-5.4,9.8c-0.1,0-0.2,0.1-0.3,0.2c1-1.6,1.6-3.5,1.8-5.5
		c0.3-2,0-4.2-0.8-6.4c-0.2-0.6-0.4-1.2-0.6-1.8c-0.2-0.6-0.4-1.2-0.6-1.6c-0.2-0.5-1.1-5.7-1.7-6.3c-0.6-0.6-1.2-1-1.9-1.2
		c-0.7-0.2-1.3,0.1-1.7,0.9c-0.7,1.2-1.4,2.4-2.2,3.7c-0.8,1.3-1.6,2.6-2.5,3.9c-0.9,1.3-1.7,2.7-2.5,4.1c-0.6,1.1-1.3,2.2-1.8,3.2
		c-0.9,1.4-2.7,3.8-4.7,4.1c0.7-1.1,1.3-2.2,1.8-3.2c0.5-1.1,0.9-2.1,1.3-3.1c0.8-2.1,1.1-3.8,1-5.1c-0.1-1.3-0.4-2.3-1-3
		c-0.5-0.7-1.2-1.2-2-1.4c-1.9-0.5-4.1,0.4-5.1,1.1s-1.9,1.4-2.6,2.4c-0.8,1-1.3,2.1-1.8,3.2c-0.4,1.2-0.7,2.4-0.8,3.6
		c0,1.2,0.1,2.3,0.5,3.4c0.4,1.3,1,2.6,1,2.6s-1.6,2.3-2.5,3.1c-0.9,0.8-2,1.2-2.8,1.2c-0.6,0-1-0.3-1.2-1c-0.2-0.7-0.2-1.5,0-2.5
		c0.2-1,0.4-2.2,0.9-3.6c0.4-1.3,0.9-2.7,1.4-4.1c0.5-1.4,1.2-2.7,1.8-4c0.7-1.3,1.3-2.4,1.9-3.4c0.4-0.6,0.5-1.2,0.3-1.6
		c-0.2-0.5-0.5-0.8-1-0.9c-0.5-0.1-1,0-1.6,0.2c-0.6,0.3-1.2,0.8-1.7,1.7c-0.4,0.6-0.8,1.3-1.2,2.2c-0.5,0.9-0.9,1.8-1.4,2.9
		c-0.5,1.1-0.9,2.2-1.4,3.3c-0.4,1.2-0.8,2.3-1.2,3.4c-0.5,1-0.9,2-1.5,3c-0.5,1-1,1.8-1.6,2.5c-0.5,0.7-1.1,1.3-1.7,1.6
		c-0.6,0.4-1.2,0.5-1.7,0.3c-0.4-0.1-0.6-0.5-0.5-1c0-0.6,0.3-1.3,0.7-2.1c0.4-0.8,0.9-1.8,1.5-2.8c0.6-1,5.1-9.4,5.7-10.4
		c0.3-0.5,0.3-1,0.2-1.5s-0.4-1.1-0.8-1.6c-0.4-0.5-0.4-0.6-1-1c-0.5-0.4-1.1-0.7-1.6-0.9c-0.5-0.2-1.1-0.2-1.6,0
		c-0.5,0.1-0.9,0.5-1.2,1.1c-0.9,1.7-1.7,3.4-2.5,5.2s-1.5,3.5-2.1,5.1c-0.2,0.5-0.8,1.6-0.9,1.9c-0.3,0.7-0.8,1.6-1.4,2.5
		c-0.7,0.9-1.5,1.9-2.5,2.7c-1,0.9-2.2,1.6-3.6,2.2c-1.4,0.6-2.9,0.9-4.7,0.9c-0.8,0-1.4-0.2-1.8-0.5c-0.4-0.3-0.7-0.8-0.9-1.4
		c-0.1-0.6-0.2-1.3,0-2.1s0.3-1.6,0.6-2.5c0.9,0.2,1.8,0.2,3,0.2s2.5-0.3,4.1-0.9c1.2-0.4,2.3-1.1,3.4-1.9c1-0.9,1.9-1.8,2.7-2.9
		c0.8-1.1,1.3-2.2,1.5-3.4c0.3-1.2,0.3-2.2,0-3.1c-0.3-0.9-0.9-1.7-1.8-2.3c-0.9-0.6-2.3-0.9-4.1-0.9c-2.8,0-5.1,0.6-7.2,1.8
		c-2.1,1.2-3.8,2.7-5.1,4.6c-2,3-3,6.7-3.1,7c-0.3,0.7-0.7,1.5-1.2,2.4s-1,1.8-1.7,2.6c-0.6,0.8-1.3,1.5-2,2.1
		c-0.7,0.6-1.4,0.9-2.2,1c-0.5,0-0.8-0.1-0.8-0.5c0-0.4,0.2-1,0.5-1.6s0.7-1.5,1.2-2.3c0.5-0.8,1-1.7,1.5-2.6c0.5-0.9,1-1.7,1.4-2.6
		s0.8-1.5,0.9-2.1c0.1-0.4,0.1-0.9,0-1.3c-0.1-0.4-0.3-0.8-0.5-1.2c-0.2-0.4-0.5-0.8-0.9-1c-0.4-0.3-0.8-0.5-1.2-0.8
		c-0.9-0.7-1.7-1.2-2.4-1.6c-0.7-0.4-1.2-0.8-1.5-1.2c-0.4-0.4-0.5-0.8-0.6-1.2c0-0.4,0.1-1,0.5-1.7c0.3-0.7,0.4-1.2,0.2-1.6
		s-0.5-0.7-0.9-0.8c-0.4-0.1-0.9,0-1.3,0.2c-0.5,0.3-0.9,0.8-1.1,1.5c-0.4,1-0.5,1.9-0.5,2.7c0,0.1-0.2,0.4-0.4,1
		c-0.2,0.5-1.2,3.2-1.6,4.1c-0.4,0.9-0.8,1.8-1.2,2.6c-0.4,0.8-0.7,1.6-1,2.3c-0.3,0.7-0.6,1.3-0.8,1.6c-0.3,0.6-0.4,1.1-0.3,1.6
		c0.1,0.5,0.4,0.8,0.7,1c0.4,0.2,0.8,0.2,1.2,0c0.4-0.2,0.9-0.7,1.2-1.4c0.2-0.5,0.5-1.2,0.9-2.1c0.4-0.8,1.6-4.3,2-5.2
		c0.4-0.9,0.7-1.7,1-2.3c0.5,0.5,0.9,0.9,1.3,1.4c0.4,0.5,0.4,1.1,0.2,1.9v0c-0.3,0.8-0.7,1.9-1.1,3c-0.4,1.2-0.8,2.4-1,3.6
		c-0.3,1.3-0.5,2.5-0.6,3.7c-0.1,1.2,0,2.3,0.2,3.3c0.2,1,0.7,1.7,1.3,2.3c0.6,0.6,1.5,0.9,2.8,0.9c1.4,0,2.6-0.4,3.8-1.2
		c1.2-0.8,2.2-1.7,3.1-2.7c0.5-0.6,1-1.3,1.4-1.9c0.5,1.6,1.3,2.9,2.6,3.9c1.4,1.2,3.3,1.8,5.8,1.8c2.1,0,4-0.4,5.7-1.1
		c1.7-0.8,3.1-1.6,4.4-2.7c0.3-0.3,0.6-0.6,0.9-0.9c0,0.1,0,0.2,0,0.3c0,1.2,0.4,2.2,0.9,3c0.5,0.8,1.4,1.3,2.5,1.5
		c1.5,0.3,2.9,0,4.1-0.9c1.2-0.9,2.3-2.1,3.2-3.5c0.1,1.3,0.5,2.3,1.2,3.1s1.8,1.2,3.4,1.2c2.3,0,4.6-0.5,6.4-1.5
		c1.8-1,3.3-2.3,4.7-3.8c1.3,0.2,2.5,0.2,3.7,0c0.7-0.1,1.3-0.3,2-0.6c0.1,0.8,0.3,1.5,0.7,2.1c0.5,1.1,1.2,2,2.1,2.7
		c2.7,2.1,7.4,1,9.1,0.4c1.7-0.5,3.2-1.3,4.7-2.3c1-0.7,2-1.5,2.9-2.4c0,0.3,0,0.6,0.1,0.9c0.2,1.3,0.6,2.3,1.3,3.1
		c0.7,0.8,1.7,1.2,3.1,1.3c1.4,0.1,2.6-0.2,3.8-1c1.2-0.8,2.2-1.7,3.1-2.8c0.5-0.6,1-1.3,1.5-2c0.5,1.5,1.3,2.8,2.5,3.9
		c1.4,1.2,3.3,1.8,5.8,1.8c2.1,0,4-0.4,5.7-1.1c1.7-0.8,3.1-1.6,4.4-2.7c1.3-1.1,2.3-2.2,3.1-3.4c0.7-1,1.2-1.8,1.5-2.6
		c0.1-0.1,0.1-0.3,0.2-0.4c0.2-0.5,0.5-1.2,0.9-2.1c0.4-0.8,0.8-1.8,1.2-2.7c0.4-1,0.8-1.9,1.2-2.8c0.4-0.9,0.7-1.7,1-2.3
		c0.5,0.5,0.9,0.9,1.3,1.4c0.4,0.5,0.4,1.1,0.2,1.9v0c-0.3,0.8-0.7,1.9-1.1,3c-0.4,1.2-0.8,2.4-1,3.6c-0.3,1.3-0.5,2.5-0.6,3.7
		c-0.1,1.2,0,2.3,0.2,3.3c0.2,1,0.7,1.7,1.3,2.3c0.6,0.6,1.5,0.9,2.8,0.9c1.4,0,2.6-0.4,3.8-1.2c1.2-0.8,2.2-1.7,3.1-2.7
		c0.2-0.2,0.4-0.4,0.5-0.6c0.1,0.3,0.2,0.5,0.3,0.8c0.5,1.1,1.3,1.9,2.1,2.7c2.4,2,5.8,1.4,7.9,0.8
		C188.4,39.5,190.4,33.8,188.1,25.1z M143.2,26.7c0.8-1.1,1.5-2.1,2.3-3c0.8-0.9,1.6-1.6,2.4-2.1c0.8-0.5,1.5-0.8,2.1-0.8
		c0.8,0,1.3,0.4,1.5,1.1c0.2,0.8,0,1.6-0.3,2.6c-0.4,1-1,1.9-1.9,2.9s-1.9,1.7-3.2,2.2c-0.9,0.4-1.8,0.6-2.7,0.6s-1.6,0-2.2,0
		C141.8,28.9,142.5,27.8,143.2,26.7z M59.5,26.7c0.8-1.1,1.5-2.1,2.3-3c0.8-0.9,1.6-1.6,2.4-2.1c0.8-0.5,1.5-0.8,2.1-0.8
		c0.8,0,1.3,0.4,1.5,1.1c0.2,0.8,0,1.6-0.3,2.6c-0.4,1-1,1.9-1.9,2.9s-2,1.7-3.2,2.2c-0.9,0.4-1.8,0.6-2.7,0.6c-0.8,0-1.6,0-2.2,0
		C58.1,28.9,58.7,27.8,59.5,26.7z M95.1,27c-1.3,3.4-2.7,4.7-2.7,4.7c-0.5-0.8-0.3-6.1,1.8-8.3c0.3-0.4,0.7-0.7,1.1-0.8
		C95.9,22.6,96.4,23.5,95.1,27z M112.5,33.2c-0.3,1.1-0.6,2.1-1.1,3c-0.5,0.9-1.1,1.6-1.8,2.1c-0.7,0.5-1.5,0.8-2.3,0.8
		c-0.5,0-1-0.2-1.3-0.7c-0.3-0.5-0.4-1-0.4-1.5c0-0.5,0.2-1,0.6-1.5c2.8-4.2,1.5-6.3,0.8-6.5c0.4-0.8,0.8-1.5,1.2-2.2
		c0.4-0.7,0.8-1.3,1.1-1.9c0.4-0.7,0.8-1.3,1.1-1.9c0.8,0.9,1.4,2,1.8,3.1c0.4,1.2,0.6,2.3,0.7,3.5C112.8,30.9,112.7,32,112.5,33.2z
		 M182.1,33.2l-1.1,3c-0.5,0.9-1.1,1.6-1.8,2.1c-0.7,0.5-1.5,0.8-2.3,0.8c-0.5,0-1-0.2-1.3-0.7c-0.3-0.5-0.4-1-0.4-1.5
		c0-0.5,0.2-1,0.6-1.5c0.4-0.5,0.9-0.7,1.7-0.7c0.8,0,1.4-0.3,1.7-0.8c0.3-0.5,0.4-1.2,0.2-1.8c-0.1-0.7-0.5-1.3-1-1.9
		s-1.1-1-1.9-1.2c0.4-0.8,0.8-1.5,1.2-2.2c0.4-0.7,0.8-1.3,1.1-1.9c0.4-0.7,0.8-1.3,1.1-1.9c0.8,0.9,1.4,2,1.8,3.1
		c0.4,1.2,0.6,2.3,0.7,3.5C182.4,30.9,182.3,32,182.1,33.2z"/>
</g>
</svg>
